<?xml version="1.0" encoding="utf-8" standalone="no"?>
<!DOCTYPE svg PUBLIC "-//W3C//DTD SVG 1.1//EN"
  "http://www.w3.org/Graphics/SVG/1.1/DTD/svg11.dtd">
<svg xmlns:xlink="http://www.w3.org/1999/xlink" width="720pt" height="504pt" viewBox="0 0 720 504" xmlns="http://www.w3.org/2000/svg" version="1.1">
 <metadata>
  <rdf:RDF xmlns:dc="http://purl.org/dc/elements/1.1/" xmlns:cc="http://creativecommons.org/ns#" xmlns:rdf="http://www.w3.org/1999/02/22-rdf-syntax-ns#">
   <cc:Work>
    <dc:type rdf:resource="http://purl.org/dc/dcmitype/StillImage"/>
    <dc:date>2026-10-07T20:15:03.911495</dc:date>
    <dc:format>image/svg+xml</dc:format>
    <dc:creator>
     <cc:Agent>
      <dc:title>Matplotlib v3.11.2, https://matplotlib.org/</dc:title>
     </cc:Agent>
    </dc:creator>
   </cc:Work>
  </rdf:RDF>
 </metadata>
 <defs>
  <style type="text/css">*{stroke-linejoin: round; stroke-linecap: butt}</style>
 </defs>
 <g id="figure_1">
  <g id="patch_1">
   <path d="M 0 504 
L 720 504 
L 720 0 
L 0 0 
z
" style="fill: #ffffff"/>
  </g>
  <g id="axes_1">
   <g id="patch_2">
    <path d="M 40.631099 240.017338 
L 716.99976 240.017338 
L 716.99976 19.535396 
L 40.631099 19.535396 
z
" style="fill: #ffffff"/>
   </g>
   <g id="matplotlib.axis_1">
    <g id="xtick_1">
     <g id="line2d_1">
      <path d="M 71.375129 240.017338 
L 71.375129 19.535396 
" clip-path="url(#p3b36f04687)" style="fill: none; stroke: #b0b0b0; stroke-opacity: 0.18; stroke-width: 0.8; stroke-linecap: square"/>
     </g>
     <g id="line2d_2">
      <defs>
       <path id="mf4d014b243" d="M 0 0 
L 0 3.5 
" style="stroke: #000000; stroke-width: 0.8"/>
      </defs>
      <g>
       <use xlink:href="#mf4d014b243" x="71.375129" y="240.017338" style="stroke: #000000; stroke-width: 0.8"/>
      </g>
     </g>
    </g>
    <g id="xtick_2">
     <g id="line2d_3">
      <path d="M 183.171602 240.017338 
L 183.171602 19.535396 
" clip-path="url(#p3b36f04687)" style="fill: none; stroke: #b0b0b0; stroke-opacity: 0.18; stroke-width: 0.8; stroke-linecap: square"/>
     </g>
     <g id="line2d_4">
      <g>
       <use xlink:href="#mf4d014b243" x="183.171602" y="240.017338" style="stroke: #000000; stroke-width: 0.8"/>
      </g>
     </g>
    </g>
    <g id="xtick_3">
     <g id="line2d_5">
      <path d="M 294.968075 240.017338 
L 294.968075 19.535396 
" clip-path="url(#p3b36f04687)" style="fill: none; stroke: #b0b0b0; stroke-opacity: 0.18; stroke-width: 0.8; stroke-linecap: square"/>
     </g>
     <g id="line2d_6">
      <g>
       <use xlink:href="#mf4d014b243" x="294.968075" y="240.017338" style="stroke: #000000; stroke-width: 0.8"/>
      </g>
     </g>
    </g>
    <g id="xtick_4">
     <g id="line2d_7">
      <path d="M 406.764548 240.017338 
L 406.764548 19.535396 
" clip-path="url(#p3b36f04687)" style="fill: none; stroke: #b0b0b0; stroke-opacity: 0.18; stroke-width: 0.8; stroke-linecap: square"/>
     </g>
     <g id="line2d_8">
      <g>
       <use xlink:href="#mf4d014b243" x="406.764548" y="240.017338" style="stroke: #000000; stroke-width: 0.8"/>
      </g>
     </g>
    </g>
    <g id="xtick_5">
     <g id="line2d_9">
      <path d="M 518.561021 240.017338 
L 518.561021 19.535396 
" clip-path="url(#p3b36f04687)" style="fill: none; stroke: #b0b0b0; stroke-opacity: 0.18; stroke-width: 0.8; stroke-linecap: square"/>
     </g>
     <g id="line2d_10">
      <g>
       <use xlink:href="#mf4d014b243" x="518.561021" y="240.017338" style="stroke: #000000; stroke-width: 0.8"/>
      </g>
     </g>
    </g>
    <g id="xtick_6">
     <g id="line2d_11">
      <path d="M 630.357494 240.017338 
L 630.357494 19.535396 
" clip-path="url(#p3b36f04687)" style="fill: none; stroke: #b0b0b0; stroke-opacity: 0.18; stroke-width: 0.8; stroke-linecap: square"/>
     </g>
     <g id="line2d_12">
      <g>
       <use xlink:href="#mf4d014b243" x="630.357494" y="240.017338" style="stroke: #000000; stroke-width: 0.8"/>
      </g>
     </g>
    </g>
   </g>
   <g id="matplotlib.axis_2">
    <g id="ytick_1">
     <g id="line2d_13">
      <path d="M 40.631099 226.382232 
L 716.99976 226.382232 
" clip-path="url(#p3b36f04687)" style="fill: none; stroke: #b0b0b0; stroke-opacity: 0.18; stroke-width: 0.8; stroke-linecap: square"/>
     </g>
     <g id="line2d_14">
      <defs>
       <path id="m5dfede9dbc" d="M 0 0 
L -3.5 0 
" style="stroke: #000000; stroke-width: 0.8"/>
      </defs>
      <g>
       <use xlink:href="#m5dfede9dbc" x="40.631099" y="226.382232" style="stroke: #000000; stroke-width: 0.8"/>
      </g>
     </g>
     <g id="text_1">
      <!-- 0.4 -->
      <g transform="translate(17.718599 230.77188) scale(0.1 -0.1)">
       <defs>
        <path id="Meiryo-13" d="M 1991 -97 
Q 1159 -97 768 497 
Q 378 1091 378 2350 
Q 378 3609 770 4206 
Q 1163 4803 1991 4803 
Q 2813 4803 3206 4204 
Q 3600 3606 3600 2356 
Q 3600 1094 3209 498 
Q 2819 -97 1991 -97 
z
M 1991 4325 
Q 1456 4325 1215 3901 
Q 975 3478 975 2350 
Q 975 1231 1215 806 
Q 1456 381 1991 381 
Q 2525 381 2764 806 
Q 3003 1231 3003 2356 
Q 3003 3459 2765 3892 
Q 2528 4325 1991 4325 
z
" transform="scale(0.015625)"/>
        <path id="Meiryo-11" d="M 1472 0 
L 763 0 
L 763 853 
L 1472 853 
L 1472 0 
z
" transform="scale(0.015625)"/>
        <path id="Meiryo-17" d="M 3713 1356 
L 3022 1356 
L 3022 0 
L 2459 0 
L 2459 1356 
L 194 1356 
L 194 2013 
L 2484 4709 
L 3022 4709 
L 3022 1819 
L 3713 1819 
L 3713 1356 
z
M 2459 1819 
L 2459 4022 
L 588 1819 
L 2459 1819 
z
" transform="scale(0.015625)"/>
       </defs>
       <use xlink:href="#Meiryo-13"/>
       <use xlink:href="#Meiryo-11" transform="translate(62.109375 0)"/>
       <use xlink:href="#Meiryo-17" transform="translate(97.015625 0)"/>
      </g>
     </g>
    </g>
    <g id="ytick_2">
     <g id="line2d_15">
      <path d="M 40.631099 193.578077 
L 716.99976 193.578077 
" clip-path="url(#p3b36f04687)" style="fill: none; stroke: #b0b0b0; stroke-opacity: 0.18; stroke-width: 0.8; stroke-linecap: square"/>
     </g>
     <g id="line2d_16">
      <g>
       <use xlink:href="#m5dfede9dbc" x="40.631099" y="193.578077" style="stroke: #000000; stroke-width: 0.8"/>
      </g>
     </g>
     <g id="text_2">
      <!-- 0.5 -->
      <g transform="translate(17.718599 197.967726) scale(0.1 -0.1)">
       <defs>
        <path id="Meiryo-18" d="M 538 178 
L 538 803 
L 588 803 
Q 1197 406 1856 406 
Q 2363 406 2667 695 
Q 2972 984 2972 1494 
Q 2972 2419 1703 2419 
Q 1341 2419 741 2294 
L 741 4709 
L 3538 4709 
L 3538 4203 
L 1303 4203 
L 1303 2869 
Q 1716 2909 1859 2909 
Q 2700 2909 3134 2546 
Q 3569 2184 3569 1491 
Q 3569 791 3098 347 
Q 2628 -97 1869 -97 
Q 1131 -97 538 178 
z
" transform="scale(0.015625)"/>
       </defs>
       <use xlink:href="#Meiryo-13"/>
       <use xlink:href="#Meiryo-11" transform="translate(62.109375 0)"/>
       <use xlink:href="#Meiryo-18" transform="translate(97.015625 0)"/>
      </g>
     </g>
    </g>
    <g id="ytick_3">
     <g id="line2d_17">
      <path d="M 40.631099 160.773922 
L 716.99976 160.773922 
" clip-path="url(#p3b36f04687)" style="fill: none; stroke: #b0b0b0; stroke-opacity: 0.18; stroke-width: 0.8; stroke-linecap: square"/>
     </g>
     <g id="line2d_18">
      <g>
       <use xlink:href="#m5dfede9dbc" x="40.631099" y="160.773922" style="stroke: #000000; stroke-width: 0.8"/>
      </g>
     </g>
     <g id="text_3">
      <!-- 0.6 -->
      <g transform="translate(17.718599 165.163571) scale(0.1 -0.1)">
       <defs>
        <path id="Meiryo-19" d="M 3222 4722 
L 3222 4169 
L 3184 4169 
Q 2922 4297 2572 4297 
Q 1881 4297 1468 3858 
Q 1056 3419 988 2638 
Q 1578 2991 2138 2991 
Q 2822 2991 3248 2611 
Q 3675 2231 3675 1522 
Q 3675 816 3212 359 
Q 2750 -97 2063 -97 
Q 1266 -97 823 458 
Q 381 1013 381 2066 
Q 381 3363 973 4080 
Q 1566 4797 2666 4797 
Q 2997 4797 3222 4722 
z
M 988 2238 
Q 975 1981 975 1928 
Q 975 1184 1265 779 
Q 1556 375 2069 375 
Q 2541 375 2809 670 
Q 3078 966 3078 1497 
Q 3078 1938 2825 2225 
Q 2572 2513 1984 2513 
Q 1475 2513 988 2238 
z
" transform="scale(0.015625)"/>
       </defs>
       <use xlink:href="#Meiryo-13"/>
       <use xlink:href="#Meiryo-11" transform="translate(62.109375 0)"/>
       <use xlink:href="#Meiryo-19" transform="translate(97.015625 0)"/>
      </g>
     </g>
    </g>
    <g id="ytick_4">
     <g id="line2d_19">
      <path d="M 40.631099 127.969767 
L 716.99976 127.969767 
" clip-path="url(#p3b36f04687)" style="fill: none; stroke: #b0b0b0; stroke-opacity: 0.18; stroke-width: 0.8; stroke-linecap: square"/>
     </g>
     <g id="line2d_20">
      <g>
       <use xlink:href="#m5dfede9dbc" x="40.631099" y="127.969767" style="stroke: #000000; stroke-width: 0.8"/>
      </g>
     </g>
     <g id="text_4">
      <!-- 0.7 -->
      <g transform="translate(17.718599 132.359416) scale(0.1 -0.1)">
       <defs>
        <path id="Meiryo-1a" d="M 3619 4056 
L 1506 0 
L 878 0 
L 3125 4203 
L 434 4203 
L 434 4709 
L 3619 4709 
L 3619 4056 
z
" transform="scale(0.015625)"/>
       </defs>
       <use xlink:href="#Meiryo-13"/>
       <use xlink:href="#Meiryo-11" transform="translate(62.109375 0)"/>
       <use xlink:href="#Meiryo-1a" transform="translate(97.015625 0)"/>
      </g>
     </g>
    </g>
    <g id="ytick_5">
     <g id="line2d_21">
      <path d="M 40.631099 95.165612 
L 716.99976 95.165612 
" clip-path="url(#p3b36f04687)" style="fill: none; stroke: #b0b0b0; stroke-opacity: 0.18; stroke-width: 0.8; stroke-linecap: square"/>
     </g>
     <g id="line2d_22">
      <g>
       <use xlink:href="#m5dfede9dbc" x="40.631099" y="95.165612" style="stroke: #000000; stroke-width: 0.8"/>
      </g>
     </g>
     <g id="text_5">
      <!-- 0.8 -->
      <g transform="translate(17.718599 99.555261) scale(0.1 -0.1)">
       <defs>
        <path id="Meiryo-1b" d="M 1206 2497 
L 1206 2534 
Q 459 2941 459 3588 
Q 459 4122 890 4469 
Q 1322 4816 1988 4816 
Q 2678 4816 3097 4487 
Q 3516 4159 3516 3628 
Q 3516 3284 3308 2982 
Q 3100 2681 2731 2513 
L 2731 2472 
Q 3641 2081 3641 1303 
Q 3641 697 3169 295 
Q 2697 -106 1988 -106 
Q 1234 -106 784 280 
Q 334 666 334 1291 
Q 334 2106 1206 2497 
z
M 2938 3625 
Q 2938 3963 2678 4178 
Q 2419 4394 1984 4394 
Q 1572 4394 1311 4192 
Q 1050 3991 1050 3663 
Q 1050 3300 1375 3065 
Q 1700 2831 2363 2628 
Q 2938 3000 2938 3625 
z
M 1588 2384 
Q 928 2013 928 1334 
Q 928 881 1228 601 
Q 1528 322 1994 322 
Q 2472 322 2753 567 
Q 3034 813 3034 1241 
Q 3034 1531 2906 1707 
Q 2778 1884 2533 2006 
Q 2288 2128 1588 2384 
z
" transform="scale(0.015625)"/>
       </defs>
       <use xlink:href="#Meiryo-13"/>
       <use xlink:href="#Meiryo-11" transform="translate(62.109375 0)"/>
       <use xlink:href="#Meiryo-1b" transform="translate(97.015625 0)"/>
      </g>
     </g>
    </g>
    <g id="ytick_6">
     <g id="line2d_23">
      <path d="M 40.631099 62.361458 
L 716.99976 62.361458 
" clip-path="url(#p3b36f04687)" style="fill: none; stroke: #b0b0b0; stroke-opacity: 0.18; stroke-width: 0.8; stroke-linecap: square"/>
     </g>
     <g id="line2d_24">
      <g>
       <use xlink:href="#m5dfede9dbc" x="40.631099" y="62.361458" style="stroke: #000000; stroke-width: 0.8"/>
      </g>
     </g>
     <g id="text_6">
      <!-- 0.9 -->
      <g transform="translate(17.718599 66.751106) scale(0.1 -0.1)">
       <defs>
        <path id="Meiryo-1c" d="M 759 -19 
L 759 534 
L 797 534 
Q 1059 409 1409 409 
Q 2853 409 2997 2081 
Q 2372 1706 1847 1706 
Q 1134 1706 720 2101 
Q 306 2497 306 3184 
Q 306 3891 768 4347 
Q 1231 4803 1919 4803 
Q 2703 4803 3151 4264 
Q 3600 3725 3600 2641 
Q 3600 1341 3009 625 
Q 2419 -91 1316 -91 
Q 991 -91 759 -19 
z
M 2997 2475 
L 3006 2753 
Q 3006 3516 2725 3923 
Q 2444 4331 1913 4331 
Q 1447 4331 1175 4032 
Q 903 3734 903 3209 
Q 903 2759 1156 2470 
Q 1409 2181 1994 2181 
Q 2472 2181 2997 2475 
z
" transform="scale(0.015625)"/>
       </defs>
       <use xlink:href="#Meiryo-13"/>
       <use xlink:href="#Meiryo-11" transform="translate(62.109375 0)"/>
       <use xlink:href="#Meiryo-1c" transform="translate(97.015625 0)"/>
      </g>
     </g>
    </g>
    <g id="ytick_7">
     <g id="line2d_25">
      <path d="M 40.631099 29.557303 
L 716.99976 29.557303 
" clip-path="url(#p3b36f04687)" style="fill: none; stroke: #b0b0b0; stroke-opacity: 0.18; stroke-width: 0.8; stroke-linecap: square"/>
     </g>
     <g id="line2d_26">
      <g>
       <use xlink:href="#m5dfede9dbc" x="40.631099" y="29.557303" style="stroke: #000000; stroke-width: 0.8"/>
      </g>
     </g>
     <g id="text_7">
      <!-- 1.0 -->
      <g transform="translate(17.718599 33.946951) scale(0.1 -0.1)">
       <defs>
        <path id="Meiryo-14" d="M 3338 0 
L 831 0 
L 831 431 
L 1813 431 
L 1813 3669 
L 831 3669 
L 831 4050 
Q 1406 4053 1653 4214 
Q 1900 4375 1931 4725 
L 2375 4725 
L 2375 431 
L 3338 431 
L 3338 0 
z
" transform="scale(0.015625)"/>
       </defs>
       <use xlink:href="#Meiryo-14"/>
       <use xlink:href="#Meiryo-11" transform="translate(62.109375 0)"/>
       <use xlink:href="#Meiryo-13" transform="translate(97.015625 0)"/>
      </g>
     </g>
    </g>
    <g id="text_8">
     <!-- 独立変数の正規化値 [0,1] -->
     <g transform="translate(11.779537 188.827148) rotate(-90) scale(0.1 -0.1)">
      <defs>
       <path id="Meiryo-b86" d="M 2288 -331 
L 2209 75 
Q 2788 103 3950 231 
L 3950 1916 
L 3019 1916 
L 3019 1688 
L 2547 1688 
L 2547 4284 
L 3950 4284 
L 3950 5291 
L 4422 5291 
L 4422 4284 
L 5878 4284 
L 5878 1916 
L 4422 1916 
L 4422 284 
L 5413 409 
Q 5119 1041 4944 1334 
L 5369 1491 
Q 5500 1269 5800 658 
Q 6100 47 6203 -225 
L 5759 -369 
Q 5697 -213 5575 53 
Q 4531 -116 2288 -331 
z
M 3019 2275 
L 3950 2275 
L 3950 3913 
L 3019 3913 
L 3019 2275 
z
M 4422 2275 
L 5413 2275 
L 5413 3913 
L 4422 3913 
L 4422 2275 
z
M 466 1022 
L 209 1269 
Q 984 2072 1488 2978 
Q 1397 3350 1250 3684 
Q 766 3053 388 2738 
L 125 3025 
Q 578 3447 1041 4106 
Q 819 4506 478 4931 
L 825 5159 
Q 1091 4847 1303 4503 
Q 1569 4931 1706 5284 
L 2175 5147 
Q 1994 4728 1541 4081 
Q 2109 2963 2109 1738 
Q 2109 644 1867 134 
Q 1625 -375 1125 -375 
L 484 -375 
L 419 47 
L 941 47 
Q 1138 47 1278 142 
Q 1419 238 1494 433 
Q 1569 628 1597 893 
Q 1625 1159 1634 1653 
L 1634 1741 
Q 1634 2088 1591 2425 
Q 1194 1719 466 1022 
z
" transform="scale(0.015625)"/>
       <path id="Meiryo-9df" d="M 441 3834 
L 441 4231 
L 2900 4231 
L 2900 5191 
L 3434 5191 
L 3434 4231 
L 5916 4231 
L 5916 3834 
L 441 3834 
z
M 231 -194 
L 231 216 
L 3541 216 
Q 3800 778 4154 1789 
Q 4509 2800 4656 3428 
L 5206 3306 
Q 5047 2778 4665 1751 
Q 4284 725 4047 216 
L 6106 216 
L 6106 -194 
L 231 -194 
z
M 1822 622 
Q 1697 1147 1458 1961 
Q 1219 2775 1084 3097 
L 1563 3253 
Q 1713 2884 1970 2025 
Q 2228 1166 2325 772 
L 1822 622 
z
" transform="scale(0.015625)"/>
       <path id="Meiryo-ad7" d="M 1113 2191 
L 891 2497 
Q 2316 3094 2347 4338 
L 394 4338 
L 394 4716 
L 2919 4716 
L 2919 5284 
L 3428 5284 
L 3428 4716 
L 5988 4716 
L 5988 4338 
L 4219 4338 
L 4219 2822 
Q 4219 2650 4072 2528 
Q 3925 2406 3697 2406 
L 3103 2406 
L 3031 2803 
L 3488 2803 
Q 3594 2803 3669 2864 
Q 3744 2925 3744 3019 
L 3744 4338 
L 2819 4338 
Q 2759 3484 2279 2973 
Q 1800 2463 1113 2191 
z
M 419 2784 
L 153 3050 
Q 534 3284 865 3596 
Q 1197 3909 1316 4091 
L 1725 3925 
Q 1563 3694 1169 3342 
Q 775 2991 419 2784 
z
M 5831 2628 
Q 5544 2816 5172 3217 
Q 4800 3619 4638 3900 
L 5028 4063 
Q 5222 3781 5562 3445 
Q 5903 3109 6172 2928 
L 5831 2628 
z
M 1741 1341 
Q 1284 1019 634 716 
L 425 1022 
Q 1753 1669 2347 2478 
L 2797 2353 
Q 2656 2138 2456 1934 
L 4969 1934 
L 5166 1772 
Q 4697 1053 3769 519 
Q 4700 184 6113 41 
L 5878 -369 
Q 4475 -225 3297 275 
Q 2719 6 1897 -175 
Q 1075 -356 388 -403 
L 275 -38 
Q 863 13 1628 169 
Q 2394 325 2841 500 
Q 2153 878 1741 1341 
z
M 3281 713 
Q 4022 1088 4441 1569 
L 2056 1569 
Q 2575 1044 3281 713 
z
" transform="scale(0.015625)"/>
       <path id="Meiryo-a2f" d="M 4825 931 
Q 4203 97 3278 -403 
L 3056 -81 
Q 4009 500 4566 1353 
Q 4038 2316 3869 3147 
Q 3744 2897 3625 2713 
L 3266 2934 
Q 3550 3397 3792 4086 
Q 4034 4775 4128 5322 
L 4609 5263 
Q 4516 4763 4325 4231 
L 6144 4231 
L 6144 3866 
L 5803 3866 
Q 5731 2459 5097 1350 
Q 5603 559 6256 22 
L 5934 -331 
Q 5269 284 4825 931 
z
M 4822 1800 
Q 5328 2797 5344 3863 
L 4181 3853 
L 4153 3781 
Q 4303 2741 4822 1800 
z
M 322 2634 
L 156 2928 
Q 456 3053 892 3331 
Q 1328 3609 1619 3881 
L 366 3881 
L 366 4206 
L 1738 4206 
L 1738 5231 
L 2194 5231 
L 2194 4206 
L 3488 4206 
L 3488 3881 
L 2222 3881 
Q 2650 3534 3194 3278 
L 2972 2966 
Q 2656 3125 2194 3481 
L 2194 2606 
L 1738 2606 
L 1738 3491 
Q 1031 2925 322 2634 
z
M 3069 4344 
L 2709 4434 
L 2997 5134 
L 3391 5050 
L 3069 4344 
z
M 888 4356 
L 634 5009 
L 1013 5122 
L 1275 4469 
L 888 4356 
z
M 2094 141 
Q 1378 -300 388 -397 
L 294 -69 
Q 1113 50 1675 347 
Q 984 675 688 753 
Q 616 753 616 866 
Q 616 888 628 909 
Q 784 1188 1000 1653 
L 269 1653 
L 269 2006 
L 1156 2006 
Q 1300 2338 1353 2491 
L 1809 2419 
Q 1753 2278 1628 2006 
L 3566 2006 
L 3566 1653 
L 3178 1653 
Q 3000 919 2450 409 
Q 2809 238 3003 134 
L 2744 -219 
Q 2522 -78 2094 141 
z
M 2053 597 
Q 2572 1038 2713 1653 
L 1466 1653 
Q 1219 1138 1131 1000 
Q 1372 919 2053 597 
z
" transform="scale(0.015625)"/>
       <path id="Meiryo-92d" d="M 3338 -128 
L 3216 294 
Q 4222 384 4936 878 
Q 5650 1372 5650 2353 
Q 5650 3228 5073 3706 
Q 4497 4184 3466 4213 
Q 3431 2531 2862 1406 
Q 2294 281 1438 281 
Q 906 281 601 732 
Q 297 1184 297 1834 
Q 297 2906 1222 3761 
Q 2147 4616 3413 4616 
Q 4603 4616 5375 4020 
Q 6147 3425 6147 2394 
Q 6147 1219 5369 597 
Q 4591 -25 3338 -128 
z
M 2975 4172 
Q 2069 4034 1416 3351 
Q 763 2669 763 1809 
Q 763 1353 953 1036 
Q 1144 719 1484 719 
Q 2069 719 2503 1811 
Q 2938 2903 2975 4172 
z
" transform="scale(0.015625)"/>
       <path id="Meiryo-a2b" d="M 316 -225 
L 316 181 
L 1197 181 
L 1197 3459 
L 1694 3459 
L 1694 181 
L 3153 181 
L 3153 4547 
L 472 4547 
L 472 4941 
L 5950 4941 
L 5950 4547 
L 3650 4547 
L 3650 2734 
L 5603 2734 
L 5603 2341 
L 3650 2341 
L 3650 181 
L 6059 181 
L 6059 -225 
L 316 -225 
z
" transform="scale(0.015625)"/>
       <path id="Meiryo-ae0" d="M 1656 1866 
Q 1400 534 275 -369 
L 53 -75 
Q 553 334 900 1004 
Q 1247 1675 1306 2406 
L 300 2406 
L 300 2772 
L 1372 2772 
L 1372 3953 
L 450 3953 
L 450 4319 
L 1372 4319 
L 1372 5272 
L 1841 5272 
L 1841 4319 
L 2722 4319 
L 2722 3953 
L 1841 3953 
L 1841 2772 
L 2744 2772 
L 2744 2406 
L 1850 2406 
Q 1969 2044 2261 1564 
Q 2553 1084 2806 819 
L 2463 506 
Q 1913 1159 1656 1866 
z
M 4572 1725 
L 4075 1725 
Q 3997 844 3503 311 
Q 3009 -222 2272 -403 
L 2097 -75 
Q 3481 356 3606 1725 
L 3081 1725 
L 3081 5166 
L 5797 5166 
L 5797 1725 
L 5034 1725 
L 5034 272 
Q 5034 141 5106 89 
Q 5178 38 5431 38 
Q 5694 38 5791 106 
Q 5888 175 5898 445 
Q 5909 716 5909 938 
L 6294 884 
Q 6300 581 6300 384 
Q 6300 -13 6214 -123 
Q 6128 -234 6001 -286 
Q 5875 -338 5400 -338 
Q 4834 -338 4703 -208 
Q 4572 -78 4572 122 
L 4572 1725 
z
M 3538 4134 
L 5334 4134 
L 5334 4822 
L 3538 4822 
L 3538 4134 
z
M 3538 3122 
L 5334 3122 
L 5334 3803 
L 3538 3803 
L 3538 3122 
z
M 5334 2791 
L 3538 2791 
L 3538 2078 
L 5334 2078 
L 5334 2791 
z
" transform="scale(0.015625)"/>
       <path id="Meiryo-9f2" d="M 1191 -397 
L 1191 2922 
Q 866 2359 381 1838 
L 75 2097 
Q 613 2734 1136 3656 
Q 1659 4578 1856 5278 
L 2372 5172 
Q 1972 4113 1509 3378 
L 1688 3378 
L 1688 -397 
L 1191 -397 
z
M 3031 5250 
L 3528 5250 
L 3528 3119 
Q 5041 3897 5613 4409 
L 5991 4063 
Q 5563 3741 4792 3303 
Q 4022 2866 3528 2659 
L 3528 422 
Q 3528 328 3564 262 
Q 3600 197 3670 162 
Q 3741 128 3970 117 
Q 4200 106 4553 106 
Q 5088 106 5206 126 
Q 5325 147 5409 209 
Q 5494 272 5536 348 
Q 5578 425 5601 681 
Q 5625 938 5625 1459 
L 6081 1413 
L 6081 316 
Q 6081 72 5904 -93 
Q 5728 -259 5393 -289 
Q 5059 -319 4572 -319 
Q 4269 -319 3945 -305 
Q 3622 -291 3484 -278 
Q 3347 -266 3242 -186 
Q 3138 -106 3084 12 
Q 3031 131 3031 291 
L 3031 5250 
z
" transform="scale(0.015625)"/>
       <path id="Meiryo-b95" d="M 1003 -384 
L 1003 2947 
Q 719 2441 350 1966 
L 50 2188 
Q 491 2809 886 3717 
Q 1281 4625 1434 5356 
L 1916 5284 
Q 1719 4456 1263 3463 
L 1484 3463 
L 1484 -384 
L 1003 -384 
z
M 3169 656 
L 3169 3866 
L 3909 3866 
L 3922 4494 
L 2013 4494 
L 2013 4878 
L 3931 4878 
L 3941 5309 
L 4434 5309 
L 4422 4878 
L 6178 4878 
L 6178 4494 
L 4409 4494 
L 4391 3866 
L 5759 3866 
L 5759 656 
L 3169 656 
z
M 5297 2959 
L 5297 3528 
L 3625 3528 
L 3625 2959 
L 5297 2959 
z
M 3625 1994 
L 5297 1994 
L 5297 2631 
L 3625 2631 
L 3625 1994 
z
M 3625 1000 
L 5297 1000 
L 5297 1666 
L 3625 1666 
L 3625 1000 
z
M 2084 -356 
L 2084 3781 
L 2556 3781 
L 2556 184 
L 6225 184 
L 6225 -169 
L 2556 -169 
L 2556 -356 
L 2084 -356 
z
" transform="scale(0.015625)"/>
       <path id="Meiryo-3" transform="scale(0.015625)"/>
       <path id="Meiryo-3e" d="M 2325 -1241 
L 697 -1241 
L 697 4919 
L 2325 4919 
L 2325 4516 
L 1206 4516 
L 1206 -838 
L 2325 -838 
L 2325 -1241 
z
" transform="scale(0.015625)"/>
       <path id="Meiryo-f" d="M 1731 853 
L 850 -1156 
L 431 -1156 
L 981 853 
L 1731 853 
z
" transform="scale(0.015625)"/>
       <path id="Meiryo-40" d="M 2116 -1241 
L 488 -1241 
L 488 -838 
L 1606 -838 
L 1606 4516 
L 488 4516 
L 488 4919 
L 2116 4919 
L 2116 -1241 
z
" transform="scale(0.015625)"/>
      </defs>
      <use xlink:href="#Meiryo-b86"/>
      <use xlink:href="#Meiryo-9df" transform="translate(100 0)"/>
      <use xlink:href="#Meiryo-ad7" transform="translate(200 0)"/>
      <use xlink:href="#Meiryo-a2f" transform="translate(300 0)"/>
      <use xlink:href="#Meiryo-92d" transform="translate(400 0)"/>
      <use xlink:href="#Meiryo-a2b" transform="translate(500 0)"/>
      <use xlink:href="#Meiryo-ae0" transform="translate(600 0)"/>
      <use xlink:href="#Meiryo-9f2" transform="translate(700 0)"/>
      <use xlink:href="#Meiryo-b95" transform="translate(800 0)"/>
      <use xlink:href="#Meiryo-3" transform="translate(900 0)"/>
      <use xlink:href="#Meiryo-3e" transform="translate(933.984375 0)"/>
      <use xlink:href="#Meiryo-13" transform="translate(977.9375 0)"/>
      <use xlink:href="#Meiryo-f" transform="translate(1040.046875 0)"/>
      <use xlink:href="#Meiryo-14" transform="translate(1074.953125 0)"/>
      <use xlink:href="#Meiryo-40" transform="translate(1137.0625 0)"/>
     </g>
    </g>
   </g>
   <g id="line2d_27">
    <path d="M 71.375129 193.578077 
L 127.273366 148.738697 
L 183.171602 133.578479 
L 239.069839 47.14077 
L 294.968075 102.634687 
L 350.866311 89.130949 
L 406.764548 32.864785 
L 462.662784 29.557303 
L 518.561021 29.557303 
L 574.459257 29.557303 
L 630.357494 29.557303 
L 686.25573 29.557303 
" clip-path="url(#p3b36f04687)" style="fill: none; stroke: #1f77b4; stroke-width: 1.5; stroke-linecap: square"/>
    <defs>
     <path id="m269faa21cf" d="M 0 1.5 
C 0.397805 1.5 0.77937 1.341951 1.06066 1.06066 
C 1.341951 0.77937 1.5 0.397805 1.5 0 
C 1.5 -0.397805 1.341951 -0.77937 1.06066 -1.06066 
C 0.77937 -1.341951 0.397805 -1.5 0 -1.5 
C -0.397805 -1.5 -0.77937 -1.341951 -1.06066 -1.06066 
C -1.341951 -0.77937 -1.5 -0.397805 -1.5 0 
C -1.5 0.397805 -1.341951 0.77937 -1.06066 1.06066 
C -0.77937 1.341951 -0.397805 1.5 0 1.5 
z
" style="stroke: #1f77b4"/>
    </defs>
    <g clip-path="url(#p3b36f04687)">
     <use xlink:href="#m269faa21cf" x="71.375129" y="193.578077" style="fill: #1f77b4; stroke: #1f77b4"/>
     <use xlink:href="#m269faa21cf" x="127.273366" y="148.738697" style="fill: #1f77b4; stroke: #1f77b4"/>
     <use xlink:href="#m269faa21cf" x="183.171602" y="133.578479" style="fill: #1f77b4; stroke: #1f77b4"/>
     <use xlink:href="#m269faa21cf" x="239.069839" y="47.14077" style="fill: #1f77b4; stroke: #1f77b4"/>
     <use xlink:href="#m269faa21cf" x="294.968075" y="102.634687" style="fill: #1f77b4; stroke: #1f77b4"/>
     <use xlink:href="#m269faa21cf" x="350.866311" y="89.130949" style="fill: #1f77b4; stroke: #1f77b4"/>
     <use xlink:href="#m269faa21cf" x="406.764548" y="32.864785" style="fill: #1f77b4; stroke: #1f77b4"/>
     <use xlink:href="#m269faa21cf" x="462.662784" y="29.557303" style="fill: #1f77b4; stroke: #1f77b4"/>
     <use xlink:href="#m269faa21cf" x="518.561021" y="29.557303" style="fill: #1f77b4; stroke: #1f77b4"/>
     <use xlink:href="#m269faa21cf" x="574.459257" y="29.557303" style="fill: #1f77b4; stroke: #1f77b4"/>
     <use xlink:href="#m269faa21cf" x="630.357494" y="29.557303" style="fill: #1f77b4; stroke: #1f77b4"/>
     <use xlink:href="#m269faa21cf" x="686.25573" y="29.557303" style="fill: #1f77b4; stroke: #1f77b4"/>
    </g>
   </g>
   <g id="line2d_28">
    <path d="M 71.375129 193.578077 
L 127.273366 159.293473 
L 183.171602 119.105217 
L 239.069839 166.31603 
L 294.968075 183.927687 
L 350.866311 146.547545 
L 406.764548 95.138885 
L 462.662784 95.398963 
L 518.561021 96.929636 
L 574.459257 96.941383 
L 630.357494 96.941302 
L 686.25573 96.941302 
" clip-path="url(#p3b36f04687)" style="fill: none; stroke: #ff7f0e; stroke-width: 1.5; stroke-linecap: square"/>
    <defs>
     <path id="m1526f5dca4" d="M 0 1.5 
C 0.397805 1.5 0.77937 1.341951 1.06066 1.06066 
C 1.341951 0.77937 1.5 0.397805 1.5 0 
C 1.5 -0.397805 1.341951 -0.77937 1.06066 -1.06066 
C 0.77937 -1.341951 0.397805 -1.5 0 -1.5 
C -0.397805 -1.5 -0.77937 -1.341951 -1.06066 -1.06066 
C -1.341951 -0.77937 -1.5 -0.397805 -1.5 0 
C -1.5 0.397805 -1.341951 0.77937 -1.06066 1.06066 
C -0.77937 1.341951 -0.397805 1.5 0 1.5 
z
" style="stroke: #ff7f0e"/>
    </defs>
    <g clip-path="url(#p3b36f04687)">
     <use xlink:href="#m1526f5dca4" x="71.375129" y="193.578077" style="fill: #ff7f0e; stroke: #ff7f0e"/>
     <use xlink:href="#m1526f5dca4" x="127.273366" y="159.293473" style="fill: #ff7f0e; stroke: #ff7f0e"/>
     <use xlink:href="#m1526f5dca4" x="183.171602" y="119.105217" style="fill: #ff7f0e; stroke: #ff7f0e"/>
     <use xlink:href="#m1526f5dca4" x="239.069839" y="166.31603" style="fill: #ff7f0e; stroke: #ff7f0e"/>
     <use xlink:href="#m1526f5dca4" x="294.968075" y="183.927687" style="fill: #ff7f0e; stroke: #ff7f0e"/>
     <use xlink:href="#m1526f5dca4" x="350.866311" y="146.547545" style="fill: #ff7f0e; stroke: #ff7f0e"/>
     <use xlink:href="#m1526f5dca4" x="406.764548" y="95.138885" style="fill: #ff7f0e; stroke: #ff7f0e"/>
     <use xlink:href="#m1526f5dca4" x="462.662784" y="95.398963" style="fill: #ff7f0e; stroke: #ff7f0e"/>
     <use xlink:href="#m1526f5dca4" x="518.561021" y="96.929636" style="fill: #ff7f0e; stroke: #ff7f0e"/>
     <use xlink:href="#m1526f5dca4" x="574.459257" y="96.941383" style="fill: #ff7f0e; stroke: #ff7f0e"/>
     <use xlink:href="#m1526f5dca4" x="630.357494" y="96.941302" style="fill: #ff7f0e; stroke: #ff7f0e"/>
     <use xlink:href="#m1526f5dca4" x="686.25573" y="96.941302" style="fill: #ff7f0e; stroke: #ff7f0e"/>
    </g>
   </g>
   <g id="line2d_29">
    <path d="M 71.375129 193.578077 
L 127.273366 206.570179 
L 183.171602 229.995432 
L 239.069839 220.776444 
L 294.968075 191.445467 
L 350.866311 213.494435 
L 406.764548 183.604241 
L 462.662784 183.06871 
L 518.561021 183.396974 
L 574.459257 183.410891 
L 630.357494 183.409664 
L 686.25573 183.409664 
" clip-path="url(#p3b36f04687)" style="fill: none; stroke: #2ca02c; stroke-width: 1.5; stroke-linecap: square"/>
    <defs>
     <path id="mddc6c8cf05" d="M 0 1.5 
C 0.397805 1.5 0.77937 1.341951 1.06066 1.06066 
C 1.341951 0.77937 1.5 0.397805 1.5 0 
C 1.5 -0.397805 1.341951 -0.77937 1.06066 -1.06066 
C 0.77937 -1.341951 0.397805 -1.5 0 -1.5 
C -0.397805 -1.5 -0.77937 -1.341951 -1.06066 -1.06066 
C -1.341951 -0.77937 -1.5 -0.397805 -1.5 0 
C -1.5 0.397805 -1.341951 0.77937 -1.06066 1.06066 
C -0.77937 1.341951 -0.397805 1.5 0 1.5 
z
" style="stroke: #2ca02c"/>
    </defs>
    <g clip-path="url(#p3b36f04687)">
     <use xlink:href="#mddc6c8cf05" x="71.375129" y="193.578077" style="fill: #2ca02c; stroke: #2ca02c"/>
     <use xlink:href="#mddc6c8cf05" x="127.273366" y="206.570179" style="fill: #2ca02c; stroke: #2ca02c"/>
     <use xlink:href="#mddc6c8cf05" x="183.171602" y="229.995432" style="fill: #2ca02c; stroke: #2ca02c"/>
     <use xlink:href="#mddc6c8cf05" x="239.069839" y="220.776444" style="fill: #2ca02c; stroke: #2ca02c"/>
     <use xlink:href="#mddc6c8cf05" x="294.968075" y="191.445467" style="fill: #2ca02c; stroke: #2ca02c"/>
     <use xlink:href="#mddc6c8cf05" x="350.866311" y="213.494435" style="fill: #2ca02c; stroke: #2ca02c"/>
     <use xlink:href="#mddc6c8cf05" x="406.764548" y="183.604241" style="fill: #2ca02c; stroke: #2ca02c"/>
     <use xlink:href="#mddc6c8cf05" x="462.662784" y="183.06871" style="fill: #2ca02c; stroke: #2ca02c"/>
     <use xlink:href="#mddc6c8cf05" x="518.561021" y="183.396974" style="fill: #2ca02c; stroke: #2ca02c"/>
     <use xlink:href="#mddc6c8cf05" x="574.459257" y="183.410891" style="fill: #2ca02c; stroke: #2ca02c"/>
     <use xlink:href="#mddc6c8cf05" x="630.357494" y="183.409664" style="fill: #2ca02c; stroke: #2ca02c"/>
     <use xlink:href="#mddc6c8cf05" x="686.25573" y="183.409664" style="fill: #2ca02c; stroke: #2ca02c"/>
    </g>
   </g>
   <g id="patch_3">
    <path d="M 40.631099 240.017338 
L 40.631099 19.535396 
" style="fill: none; stroke: #000000; stroke-width: 0.8; stroke-linejoin: miter; stroke-linecap: square"/>
   </g>
   <g id="patch_4">
    <path d="M 40.631099 240.017338 
L 716.99976 240.017338 
" style="fill: none; stroke: #000000; stroke-width: 0.8; stroke-linejoin: miter; stroke-linecap: square"/>
   </g>
   <g id="text_9">
    <!-- 3つの独立変数から5つの転位係数を求める -->
    <g transform="translate(263.362305 13.535396) scale(0.12 -0.12)">
     <defs>
      <path id="Meiryo-16" d="M 475 197 
L 475 825 
L 525 825 
Q 1159 406 1838 406 
Q 2338 406 2639 678 
Q 2941 950 2941 1434 
Q 2941 1884 2678 2096 
Q 2416 2309 1828 2309 
L 1553 2309 
L 1553 2791 
L 1766 2791 
Q 2272 2791 2559 3006 
Q 2847 3222 2847 3613 
Q 2847 3944 2595 4123 
Q 2344 4303 1903 4303 
Q 1269 4303 644 3894 
L 609 3894 
L 609 4509 
Q 1241 4806 1919 4806 
Q 2647 4806 3045 4501 
Q 3444 4197 3444 3678 
Q 3444 3297 3178 2997 
Q 2913 2697 2513 2616 
L 2513 2566 
Q 3541 2381 3541 1381 
Q 3541 734 3069 318 
Q 2597 -97 1853 -97 
Q 1144 -97 475 197 
z
" transform="scale(0.015625)"/>
      <path id="Meiryo-923" d="M 1831 72 
L 1753 513 
Q 3816 569 4687 1055 
Q 5559 1541 5563 2444 
Q 5563 3150 5138 3548 
Q 4713 3947 3981 3950 
Q 3513 3950 2436 3803 
Q 1359 3656 409 3469 
L 341 3931 
Q 3122 4378 3928 4378 
Q 4934 4375 5504 3875 
Q 6075 3375 6075 2456 
Q 6075 1338 5142 736 
Q 4209 134 1831 72 
z
" transform="scale(0.015625)"/>
      <path id="Meiryo-90a" d="M 2197 4494 
Q 2197 4213 2166 3853 
L 3366 3853 
Q 3809 3853 4061 3536 
Q 4313 3219 4316 2706 
Q 4313 1444 4047 617 
Q 3781 -209 3116 -209 
Q 2728 -209 2028 159 
L 2184 556 
Q 2347 478 2650 378 
Q 2953 278 3066 278 
Q 3316 278 3467 539 
Q 3619 800 3720 1300 
Q 3822 1800 3822 2494 
Q 3822 3113 3656 3278 
Q 3491 3444 3213 3444 
L 2125 3444 
Q 2000 2647 1853 2078 
Q 1706 1509 1389 884 
Q 1072 259 622 -244 
L 269 13 
Q 678 494 1079 1351 
Q 1481 2209 1619 3378 
L 397 3378 
L 397 3797 
L 1669 3797 
Q 1691 4016 1691 5056 
L 2197 5056 
L 2197 4494 
z
M 6284 1966 
L 5800 1838 
Q 5372 3403 4556 4275 
L 4922 4525 
Q 5353 4084 5745 3345 
Q 6138 2606 6284 1966 
z
" transform="scale(0.015625)"/>
      <path id="Meiryo-948" d="M 5178 4225 
L 4934 3816 
Q 4706 3922 4248 4064 
Q 3791 4206 3289 4339 
Q 2788 4472 1747 4653 
L 1888 5050 
Q 3025 4859 3931 4609 
Q 4838 4359 5178 4225 
z
M 1909 -244 
L 1844 184 
Q 3850 209 4547 536 
Q 5244 863 5244 1447 
Q 5244 1963 4880 2242 
Q 4516 2522 3900 2522 
Q 3163 2522 2377 2198 
Q 1591 1875 1178 1375 
L 769 1613 
Q 1175 2656 1222 4153 
L 1728 4141 
Q 1706 3297 1391 2119 
Q 1819 2472 2526 2701 
Q 3234 2931 3847 2931 
Q 4753 2931 5256 2550 
Q 5759 2169 5759 1447 
Q 5759 647 4939 201 
Q 4119 -244 2050 -244 
L 1909 -244 
z
" transform="scale(0.015625)"/>
      <path id="Meiryo-ae1" d="M 238 669 
L 238 1028 
L 1438 1028 
L 1438 1569 
L 406 1569 
L 406 3875 
L 1450 3875 
L 1450 4403 
L 275 4403 
L 275 4763 
L 1450 4763 
L 1450 5303 
L 1913 5303 
L 1913 4763 
L 3050 4763 
L 3050 4403 
L 1913 4403 
L 1913 3875 
L 2938 3875 
L 2938 1569 
L 1900 1569 
L 1900 1028 
L 3038 1028 
L 3038 669 
L 1900 669 
L 1900 -403 
L 1438 -403 
L 1438 669 
L 238 669 
z
M 838 2916 
L 1463 2916 
L 1463 3553 
L 838 3553 
L 838 2916 
z
M 1881 2916 
L 2494 2916 
L 2494 3553 
L 1881 3553 
L 1881 2916 
z
M 2494 2594 
L 1881 2594 
L 1881 1903 
L 2494 1903 
L 2494 2594 
z
M 1463 2594 
L 838 2594 
L 838 1903 
L 1463 1903 
L 1463 2594 
z
M 3403 4578 
L 3403 4963 
L 5963 4963 
L 5963 4578 
L 3403 4578 
z
M 3019 -309 
L 2919 88 
Q 3078 97 3303 119 
Q 3691 1066 4125 2750 
L 3225 2750 
L 3225 3138 
L 6091 3138 
L 6091 2750 
L 4638 2750 
Q 4225 1234 3778 169 
Q 4716 278 5419 403 
Q 5150 1063 4903 1616 
L 5334 1753 
Q 5594 1234 6163 -225 
L 5713 -356 
Q 5653 -191 5563 44 
Q 4856 -91 3019 -309 
z
" transform="scale(0.015625)"/>
      <path id="Meiryo-a5b" d="M 1106 -403 
L 1106 2891 
Q 716 2228 334 1803 
L 28 2059 
Q 553 2738 1000 3597 
Q 1447 4456 1684 5328 
L 2175 5238 
Q 1953 4494 1434 3494 
L 1600 3494 
L 1600 -403 
L 1106 -403 
z
M 2047 3803 
L 2047 4213 
L 3788 4213 
L 3788 5309 
L 4291 5309 
L 4291 4213 
L 6166 4213 
L 6166 3803 
L 2047 3803 
z
M 1916 -247 
L 1916 178 
L 4188 178 
Q 4394 734 4698 1815 
Q 5003 2897 5122 3534 
L 5631 3444 
Q 5106 1300 4672 178 
L 6263 178 
L 6263 -247 
L 1916 -247 
z
M 3013 603 
Q 2928 1122 2729 2006 
Q 2531 2891 2419 3247 
L 2869 3350 
Q 3003 2969 3469 706 
L 3013 603 
z
" transform="scale(0.015625)"/>
      <path id="Meiryo-aac" d="M 1103 -403 
L 1103 2931 
Q 716 2281 341 1875 
L 47 2125 
Q 553 2750 1040 3681 
Q 1528 4613 1684 5303 
L 2188 5200 
Q 2047 4631 1422 3503 
L 1594 3503 
L 1594 -403 
L 1103 -403 
z
M 3866 -363 
L 3866 1828 
L 2103 1731 
L 2050 2150 
Q 2344 2156 3009 2175 
Q 3228 2375 3525 2672 
Q 2656 3356 2303 3600 
L 2619 3900 
Q 2672 3863 2850 3731 
Q 3197 4097 3591 4622 
Q 2834 4566 2441 4566 
L 2356 4925 
Q 2991 4925 4050 5029 
Q 5109 5134 5634 5272 
L 5816 4906 
Q 5303 4778 4194 4672 
Q 3625 3947 3163 3497 
Q 3578 3178 3825 2978 
Q 4597 3778 4903 4219 
L 5353 3991 
Q 4694 3191 3594 2194 
Q 4778 2234 5434 2281 
L 5091 2784 
L 5522 2959 
Q 5919 2416 6275 1747 
L 5838 1575 
Q 5750 1759 5641 1950 
Q 5272 1913 4353 1856 
L 4353 -363 
L 3866 -363 
z
M 5738 -56 
Q 5244 634 4891 1359 
L 5306 1516 
Q 5700 744 6156 191 
L 5738 -56 
z
M 2403 -109 
L 2050 134 
Q 2666 784 2925 1425 
L 3369 1303 
Q 3238 988 2934 550 
Q 2631 113 2403 -109 
z
" transform="scale(0.015625)"/>
      <path id="Meiryo-951" d="M 4059 794 
L 3597 794 
L 3597 1819 
Q 3597 2000 3588 2128 
Q 2150 1406 2150 819 
Q 2150 525 2472 351 
Q 2794 178 3828 178 
Q 5056 178 5788 294 
L 5819 -159 
Q 5075 -247 4100 -247 
Q 2597 -247 2140 15 
Q 1684 278 1684 766 
Q 1681 1200 2086 1625 
Q 2491 2050 3494 2544 
Q 3366 2825 3034 2825 
Q 2659 2825 2226 2689 
Q 1794 2553 1153 2006 
L 634 1569 
L 366 1888 
Q 1509 2775 2072 3938 
L 616 3938 
L 616 4344 
L 2244 4344 
Q 2388 4716 2466 5094 
L 2984 5050 
Q 2906 4691 2772 4344 
L 5094 4344 
L 5094 3938 
L 2606 3938 
Q 2431 3578 1997 2988 
L 2044 2963 
Q 2166 3041 2525 3114 
Q 2884 3188 3078 3188 
Q 3684 3188 3906 2734 
L 5747 3444 
L 5953 3022 
Q 5303 2809 4022 2331 
Q 4059 2097 4059 1741 
L 4059 794 
z
" transform="scale(0.015625)"/>
      <path id="Meiryo-a77" d="M 2847 -384 
L 1972 -384 
L 1900 59 
L 2647 59 
Q 2906 59 2906 303 
L 2906 3841 
L 406 3841 
L 406 4244 
L 2906 4244 
L 2906 5381 
L 3409 5381 
L 3409 4244 
L 5038 4244 
Q 4841 4463 4244 4997 
L 4572 5256 
Q 4878 5019 5419 4519 
L 5078 4244 
L 6084 4244 
L 6084 3841 
L 3409 3841 
L 3409 3553 
L 3447 3428 
Q 3594 2941 4213 2206 
Q 4928 2747 5484 3313 
L 5869 3013 
Q 5284 2450 4478 1906 
Q 5316 1000 6216 419 
L 5869 53 
Q 5031 641 4382 1336 
Q 3734 2031 3409 2659 
L 3409 119 
Q 3409 -94 3231 -239 
Q 3053 -384 2847 -384 
z
M 1684 1966 
Q 1363 2531 856 3175 
L 1275 3403 
Q 1847 2669 2128 2209 
L 1684 1966 
z
M 341 334 
L 159 766 
Q 616 909 1350 1225 
Q 2084 1541 2516 1772 
L 2631 1378 
Q 2391 1216 1647 877 
Q 903 538 341 334 
z
" transform="scale(0.015625)"/>
      <path id="Meiryo-940" d="M 3138 838 
L 2778 538 
Q 2675 666 2547 841 
Q 1825 116 1166 116 
Q 772 116 523 409 
Q 275 703 275 1134 
Q 275 1697 569 2228 
Q 863 2759 1369 3138 
Q 1169 3744 1038 4441 
L 1513 4563 
Q 1606 4019 1791 3406 
Q 2513 3797 3400 3891 
Q 3456 4478 3456 4978 
L 3969 4984 
Q 3953 4353 3909 3919 
Q 4853 3903 5473 3356 
Q 6094 2809 6094 1934 
Q 6094 966 5362 405 
Q 4631 -156 3381 -238 
L 3266 172 
Q 5588 397 5588 1969 
Q 5588 2663 5098 3086 
Q 4609 3509 3856 3516 
Q 3641 2194 2866 1200 
Q 2978 1041 3138 838 
z
M 1906 3009 
Q 2181 2278 2600 1603 
Q 3184 2431 3350 3484 
Q 2522 3388 1906 3009 
z
M 2291 1216 
Q 1825 1928 1519 2719 
Q 1228 2463 1047 2183 
Q 866 1903 805 1645 
Q 744 1388 744 1081 
Q 744 878 892 717 
Q 1041 556 1244 556 
Q 1688 556 2291 1216 
z
" transform="scale(0.015625)"/>
      <path id="Meiryo-94a" d="M 4056 228 
Q 5228 509 5228 1434 
Q 5228 2006 4797 2318 
Q 4366 2631 3647 2631 
Q 3153 2631 2683 2506 
Q 2213 2381 1602 1997 
Q 991 1613 750 1409 
L 519 1794 
Q 2422 3022 4238 4378 
L 1075 4366 
L 1075 4781 
L 4891 4781 
L 5109 4463 
L 2906 2938 
L 2931 2900 
Q 3313 3016 3691 3016 
Q 4588 3016 5164 2603 
Q 5741 2191 5741 1463 
Q 5741 609 5034 160 
Q 4328 -288 3141 -288 
Q 1509 -288 1509 609 
Q 1509 963 1846 1203 
Q 2184 1444 2588 1444 
Q 3153 1444 3556 1128 
Q 3959 813 4056 228 
z
M 3597 147 
Q 3416 1044 2622 1044 
Q 2369 1044 2167 919 
Q 1966 794 1966 588 
Q 1966 109 3072 109 
Q 3313 109 3597 147 
z
" transform="scale(0.015625)"/>
     </defs>
     <use xlink:href="#Meiryo-16"/>
     <use xlink:href="#Meiryo-923" transform="translate(62.109375 0)"/>
     <use xlink:href="#Meiryo-92d" transform="translate(162.109375 0)"/>
     <use xlink:href="#Meiryo-b86" transform="translate(262.109375 0)"/>
     <use xlink:href="#Meiryo-9df" transform="translate(362.109375 0)"/>
     <use xlink:href="#Meiryo-ad7" transform="translate(462.109375 0)"/>
     <use xlink:href="#Meiryo-a2f" transform="translate(562.109375 0)"/>
     <use xlink:href="#Meiryo-90a" transform="translate(662.109375 0)"/>
     <use xlink:href="#Meiryo-948" transform="translate(762.109375 0)"/>
     <use xlink:href="#Meiryo-18" transform="translate(862.109375 0)"/>
     <use xlink:href="#Meiryo-923" transform="translate(924.21875 0)"/>
     <use xlink:href="#Meiryo-92d" transform="translate(1024.21875 0)"/>
     <use xlink:href="#Meiryo-ae1" transform="translate(1124.21875 0)"/>
     <use xlink:href="#Meiryo-a5b" transform="translate(1224.21875 0)"/>
     <use xlink:href="#Meiryo-aac" transform="translate(1324.21875 0)"/>
     <use xlink:href="#Meiryo-a2f" transform="translate(1424.21875 0)"/>
     <use xlink:href="#Meiryo-951" transform="translate(1524.21875 0)"/>
     <use xlink:href="#Meiryo-a77" transform="translate(1624.21875 0)"/>
     <use xlink:href="#Meiryo-940" transform="translate(1724.21875 0)"/>
     <use xlink:href="#Meiryo-94a" transform="translate(1824.21875 0)"/>
    </g>
   </g>
   <g id="legend_1">
    <g id="patch_5">
     <path d="M 47.631099 42.535396 
L 267.427974 42.535396 
Q 269.427974 42.535396 269.427974 40.535396 
L 269.427974 26.535396 
Q 269.427974 24.535396 267.427974 24.535396 
L 47.631099 24.535396 
Q 45.631099 24.535396 45.631099 26.535396 
L 45.631099 40.535396 
Q 45.631099 42.535396 47.631099 42.535396 
z
" style="fill: #ffffff; opacity: 0.8; stroke: #cccccc; stroke-linejoin: miter"/>
    </g>
    <g id="line2d_30">
     <path d="M 49.631099 33.814693 
L 59.631099 33.814693 
L 69.631099 33.814693 
" style="fill: none; stroke: #1f77b4; stroke-width: 1.5; stroke-linecap: square"/>
     <g>
      <use xlink:href="#m269faa21cf" x="59.631099" y="33.814693" style="fill: #1f77b4; stroke: #1f77b4"/>
     </g>
    </g>
    <g id="text_10">
     <!-- xr1 -->
     <g transform="translate(77.631099 37.314693) scale(0.1 -0.1)">
      <defs>
       <path id="Meiryo-5b" d="M 3428 0 
L 2763 0 
L 1766 1372 
L 744 0 
L 128 0 
L 1472 1753 
L 141 3531 
L 806 3531 
L 1797 2169 
L 2809 3531 
L 3428 3531 
L 2091 1788 
L 3428 0 
z
" transform="scale(0.015625)"/>
       <path id="Meiryo-55" d="M 531 0 
L 531 3531 
L 1081 3531 
L 1081 2988 
Q 1744 3531 2303 3531 
Q 2500 3531 2700 3500 
L 2700 2925 
L 2678 2925 
Q 2419 2988 2153 2988 
Q 1622 2988 1081 2538 
L 1081 0 
L 531 0 
z
" transform="scale(0.015625)"/>
      </defs>
      <use xlink:href="#Meiryo-5b"/>
      <use xlink:href="#Meiryo-55" transform="translate(55.5625 0)"/>
      <use xlink:href="#Meiryo-14" transform="translate(96.875 0)"/>
     </g>
    </g>
    <g id="line2d_31">
     <path d="M 113.529537 33.814693 
L 123.529537 33.814693 
L 133.529537 33.814693 
" style="fill: none; stroke: #ff7f0e; stroke-width: 1.5; stroke-linecap: square"/>
     <g>
      <use xlink:href="#m1526f5dca4" x="123.529537" y="33.814693" style="fill: #ff7f0e; stroke: #ff7f0e"/>
     </g>
    </g>
    <g id="text_11">
     <!-- xr2 -->
     <g transform="translate(141.529537 37.314693) scale(0.1 -0.1)">
      <defs>
       <path id="Meiryo-15" d="M 3606 0 
L 456 0 
L 456 609 
Q 956 1041 1579 1612 
Q 2203 2184 2506 2618 
Q 2809 3053 2809 3488 
Q 2809 3872 2554 4087 
Q 2300 4303 1863 4303 
Q 1222 4303 603 3897 
L 572 3897 
L 572 4506 
Q 1203 4806 1878 4806 
Q 2591 4806 3000 4461 
Q 3409 4116 3409 3519 
Q 3409 3200 3304 2909 
Q 3200 2619 2978 2344 
Q 2756 2069 2447 1759 
Q 2138 1450 1025 503 
L 3606 503 
L 3606 0 
z
" transform="scale(0.015625)"/>
      </defs>
      <use xlink:href="#Meiryo-5b"/>
      <use xlink:href="#Meiryo-55" transform="translate(55.5625 0)"/>
      <use xlink:href="#Meiryo-15" transform="translate(96.875 0)"/>
     </g>
    </g>
    <g id="line2d_32">
     <path d="M 177.427974 33.814693 
L 187.427974 33.814693 
L 197.427974 33.814693 
" style="fill: none; stroke: #2ca02c; stroke-width: 1.5; stroke-linecap: square"/>
     <g>
      <use xlink:href="#mddc6c8cf05" x="187.427974" y="33.814693" style="fill: #2ca02c; stroke: #2ca02c"/>
     </g>
    </g>
    <g id="text_12">
     <!-- 共通中心距離 -->
     <g transform="translate(205.427974 37.314693) scale(0.1 -0.1)">
      <defs>
       <path id="Meiryo-ac1" d="M 303 1663 
L 303 2047 
L 1713 2047 
L 1713 3666 
L 556 3666 
L 556 4050 
L 1713 4050 
L 1713 5213 
L 2209 5213 
L 2209 4050 
L 4147 4050 
L 4147 5200 
L 4644 5200 
L 4644 4050 
L 5866 4050 
L 5866 3666 
L 4644 3666 
L 4644 2047 
L 6088 2047 
L 6088 1663 
L 303 1663 
z
M 2209 2047 
L 4147 2047 
L 4147 3666 
L 2209 3666 
L 2209 2047 
z
M 484 -331 
L 250 9 
Q 819 256 1366 706 
Q 1913 1156 2116 1419 
L 2547 1172 
Q 2222 775 1576 303 
Q 931 -169 484 -331 
z
M 5759 -325 
Q 5347 -144 4825 254 
Q 4303 653 3866 1191 
L 4253 1419 
Q 5019 534 6066 41 
L 5759 -325 
z
" transform="scale(0.015625)"/>
       <path id="Meiryo-9e2" d="M 1156 3900 
Q 884 4394 406 4978 
L 803 5225 
Q 1306 4603 1594 4169 
L 1156 3900 
z
M 5297 1641 
L 4219 1641 
L 4219 538 
L 3750 538 
L 3750 1641 
L 2731 1641 
L 2731 484 
L 2266 484 
L 2266 3822 
L 3728 3822 
Q 3413 4041 2775 4397 
L 3081 4656 
Q 3388 4488 3913 4166 
Q 4638 4506 5066 4788 
L 2169 4788 
L 2169 5147 
L 5531 5147 
L 5831 4859 
Q 5406 4466 4253 3953 
Q 4325 3909 4456 3822 
L 5772 3822 
L 5772 963 
Q 5772 744 5615 622 
Q 5459 500 5219 500 
L 4609 500 
L 4572 897 
L 5053 897 
Q 5297 897 5297 1113 
L 5297 1641 
z
M 3750 2916 
L 3750 3494 
L 2731 3494 
L 2731 2916 
L 3750 2916 
z
M 4219 3494 
L 4219 2916 
L 5297 2916 
L 5297 3494 
L 4219 3494 
z
M 2731 1975 
L 3750 1975 
L 3750 2581 
L 2731 2581 
L 2731 1975 
z
M 4219 1975 
L 5297 1975 
L 5297 2581 
L 4219 2581 
L 4219 1975 
z
M 6197 -259 
Q 5503 -266 3659 -266 
Q 2578 -266 2042 -89 
Q 1506 88 1294 459 
Q 775 -72 269 -319 
L 100 100 
Q 275 178 579 376 
Q 884 575 1019 700 
L 1019 2613 
L 191 2613 
L 191 3000 
L 1509 3000 
L 1509 994 
Q 1509 700 1715 514 
Q 1922 328 2200 264 
Q 2478 200 2722 165 
Q 2966 131 4138 131 
Q 5650 131 6288 172 
L 6197 -259 
z
" transform="scale(0.015625)"/>
       <path id="Meiryo-9b0" d="M 5316 1603 
L 3391 1603 
L 3391 -381 
L 2900 -381 
L 2900 1603 
L 1028 1603 
L 1028 1309 
L 550 1309 
L 550 4278 
L 2900 4278 
L 2900 5250 
L 3391 5250 
L 3391 4278 
L 5784 4278 
L 5784 1309 
L 5316 1309 
L 5316 1603 
z
M 1028 1969 
L 2900 1969 
L 2900 3913 
L 1028 3913 
L 1028 1969 
z
M 3391 1969 
L 5316 1969 
L 5316 3913 
L 3391 3913 
L 3391 1969 
z
" transform="scale(0.015625)"/>
       <path id="Meiryo-a71" d="M 3834 3800 
Q 3453 4163 2253 4969 
L 2553 5275 
Q 2869 5109 3400 4740 
Q 3931 4372 4178 4153 
L 3834 3800 
z
M 1922 3997 
L 2416 3997 
L 2416 516 
Q 2416 306 2570 237 
Q 2725 169 3441 169 
Q 3797 169 4058 187 
Q 4319 206 4400 253 
Q 4481 300 4518 381 
Q 4556 463 4584 797 
Q 4613 1131 4597 1366 
L 5041 1319 
L 5041 359 
Q 5041 219 4978 108 
Q 4916 -3 4812 -72 
Q 4709 -141 4593 -175 
Q 4478 -209 4125 -231 
Q 3772 -253 3328 -253 
Q 3003 -253 2597 -229 
Q 2191 -206 2056 -42 
Q 1922 122 1922 388 
L 1922 3997 
z
M 5731 1078 
Q 5603 1516 5323 2170 
Q 5044 2825 4850 3159 
L 5275 3338 
Q 5522 2897 5815 2230 
Q 6109 1563 6191 1234 
L 5731 1078 
z
M 675 400 
L 222 569 
Q 547 1263 731 2781 
L 1191 2744 
Q 1159 2266 995 1502 
Q 831 738 675 400 
z
" transform="scale(0.015625)"/>
       <path id="Meiryo-df1" d="M 3534 272 
L 6113 272 
L 6113 -106 
L 3534 -106 
L 3534 -359 
L 3072 -359 
L 3072 5050 
L 6113 5050 
L 6113 4666 
L 3534 4666 
L 3534 3563 
L 5734 3563 
L 5734 1525 
L 3534 1525 
L 3534 272 
z
M 3534 3203 
L 3534 1884 
L 5250 1884 
L 5250 3203 
L 3534 3203 
z
M 269 -328 
L 178 75 
L 484 119 
L 484 2538 
L 903 2538 
L 903 184 
L 1413 266 
L 1413 3138 
L 531 3138 
L 531 5038 
L 2497 5038 
L 2497 3138 
L 1875 3138 
L 1875 2106 
L 2581 2106 
L 2581 1747 
L 1875 1747 
L 1875 341 
Q 2494 447 2725 506 
L 2731 122 
Q 1956 -91 269 -328 
z
M 2053 4691 
L 981 4691 
L 981 3478 
L 2053 3478 
L 2053 4691 
z
" transform="scale(0.015625)"/>
       <path id="Meiryo-bde" d="M 5406 225 
L 6144 225 
L 6144 -147 
L 4309 -147 
L 4309 -356 
L 3853 -356 
L 3853 3313 
L 3619 2934 
L 3403 3144 
Q 3972 4169 4206 5303 
L 4681 5238 
Q 4556 4728 4363 4213 
L 5003 4213 
Q 5178 4594 5375 5225 
L 5838 5134 
Q 5697 4772 5416 4213 
L 6106 4213 
L 6106 3866 
L 5406 3866 
L 5406 2934 
L 6006 2934 
L 6006 2581 
L 5406 2581 
L 5406 1634 
L 6013 1634 
L 6013 1281 
L 5406 1281 
L 5406 225 
z
M 4309 3866 
L 4309 2934 
L 4975 2934 
L 4975 3866 
L 4309 3866 
z
M 4309 2581 
L 4309 1634 
L 4975 1634 
L 4975 2581 
L 4309 2581 
z
M 4309 225 
L 4975 225 
L 4975 1281 
L 4309 1281 
L 4309 225 
z
M 250 4481 
L 250 4828 
L 1691 4828 
L 1691 5272 
L 2169 5272 
L 2169 4828 
L 3506 4828 
L 3506 4481 
L 250 4481 
z
M 1222 3091 
L 1084 3306 
Q 1328 3428 1697 3681 
Q 1363 3900 1184 3991 
L 1353 4206 
Q 1694 4028 1953 3866 
Q 2194 4050 2416 4259 
L 2666 4091 
Q 2478 3903 2209 3700 
Q 2341 3616 2625 3416 
L 2422 3181 
Q 2200 3347 1950 3516 
Q 1528 3228 1222 3091 
z
M 1031 472 
L 981 766 
L 1213 791 
Q 1306 1100 1447 1797 
L 784 1797 
L 784 -397 
L 366 -397 
L 366 2125 
L 1513 2125 
L 1600 2613 
L 459 2613 
L 459 4147 
L 838 4147 
L 838 2922 
L 2919 2922 
L 2919 4147 
L 3278 4147 
L 3278 2613 
L 2025 2613 
L 1913 2125 
L 3363 2125 
L 3363 34 
Q 3363 -122 3242 -230 
Q 3122 -338 2966 -338 
L 2384 -338 
L 2350 3 
L 2763 3 
Q 2978 3 2978 178 
L 2978 1797 
L 1834 1797 
Q 1681 1172 1572 838 
Q 2031 900 2263 947 
L 2138 1431 
L 2438 1491 
L 2697 513 
L 2391 447 
L 2325 700 
Q 2025 634 1031 472 
z
" transform="scale(0.015625)"/>
      </defs>
      <use xlink:href="#Meiryo-ac1"/>
      <use xlink:href="#Meiryo-9e2" transform="translate(100 0)"/>
      <use xlink:href="#Meiryo-9b0" transform="translate(200 0)"/>
      <use xlink:href="#Meiryo-a71" transform="translate(300 0)"/>
      <use xlink:href="#Meiryo-df1" transform="translate(400 0)"/>
      <use xlink:href="#Meiryo-bde" transform="translate(500 0)"/>
     </g>
    </g>
   </g>
  </g>
  <g id="axes_2">
   <g id="patch_6">
    <path d="M 40.631099 469.99976 
L 716.99976 469.99976 
L 716.99976 249.517818 
L 40.631099 249.517818 
z
" style="fill: #ffffff"/>
   </g>
   <g id="matplotlib.axis_3">
    <g id="xtick_7">
     <g id="line2d_33">
      <path d="M 71.375129 469.99976 
L 71.375129 249.517818 
" clip-path="url(#p53ce30490a)" style="fill: none; stroke: #b0b0b0; stroke-opacity: 0.18; stroke-width: 0.8; stroke-linecap: square"/>
     </g>
     <g id="line2d_34">
      <g>
       <use xlink:href="#mf4d014b243" x="71.375129" y="469.99976" style="stroke: #000000; stroke-width: 0.8"/>
      </g>
     </g>
     <g id="text_13">
      <!-- 0 -->
      <g transform="translate(68.269661 485.779057) scale(0.1 -0.1)">
       <use xlink:href="#Meiryo-13"/>
      </g>
     </g>
    </g>
    <g id="xtick_8">
     <g id="line2d_35">
      <path d="M 183.171602 469.99976 
L 183.171602 249.517818 
" clip-path="url(#p53ce30490a)" style="fill: none; stroke: #b0b0b0; stroke-opacity: 0.18; stroke-width: 0.8; stroke-linecap: square"/>
     </g>
     <g id="line2d_36">
      <g>
       <use xlink:href="#mf4d014b243" x="183.171602" y="469.99976" style="stroke: #000000; stroke-width: 0.8"/>
      </g>
     </g>
     <g id="text_14">
      <!-- 2 -->
      <g transform="translate(180.066133 485.779057) scale(0.1 -0.1)">
       <use xlink:href="#Meiryo-15"/>
      </g>
     </g>
    </g>
    <g id="xtick_9">
     <g id="line2d_37">
      <path d="M 294.968075 469.99976 
L 294.968075 249.517818 
" clip-path="url(#p53ce30490a)" style="fill: none; stroke: #b0b0b0; stroke-opacity: 0.18; stroke-width: 0.8; stroke-linecap: square"/>
     </g>
     <g id="line2d_38">
      <g>
       <use xlink:href="#mf4d014b243" x="294.968075" y="469.99976" style="stroke: #000000; stroke-width: 0.8"/>
      </g>
     </g>
     <g id="text_15">
      <!-- 4 -->
      <g transform="translate(291.862606 485.779057) scale(0.1 -0.1)">
       <use xlink:href="#Meiryo-17"/>
      </g>
     </g>
    </g>
    <g id="xtick_10">
     <g id="line2d_39">
      <path d="M 406.764548 469.99976 
L 406.764548 249.517818 
" clip-path="url(#p53ce30490a)" style="fill: none; stroke: #b0b0b0; stroke-opacity: 0.18; stroke-width: 0.8; stroke-linecap: square"/>
     </g>
     <g id="line2d_40">
      <g>
       <use xlink:href="#mf4d014b243" x="406.764548" y="469.99976" style="stroke: #000000; stroke-width: 0.8"/>
      </g>
     </g>
     <g id="text_16">
      <!-- 6 -->
      <g transform="translate(403.659079 485.779057) scale(0.1 -0.1)">
       <use xlink:href="#Meiryo-19"/>
      </g>
     </g>
    </g>
    <g id="xtick_11">
     <g id="line2d_41">
      <path d="M 518.561021 469.99976 
L 518.561021 249.517818 
" clip-path="url(#p53ce30490a)" style="fill: none; stroke: #b0b0b0; stroke-opacity: 0.18; stroke-width: 0.8; stroke-linecap: square"/>
     </g>
     <g id="line2d_42">
      <g>
       <use xlink:href="#mf4d014b243" x="518.561021" y="469.99976" style="stroke: #000000; stroke-width: 0.8"/>
      </g>
     </g>
     <g id="text_17">
      <!-- 8 -->
      <g transform="translate(515.455552 485.779057) scale(0.1 -0.1)">
       <use xlink:href="#Meiryo-1b"/>
      </g>
     </g>
    </g>
    <g id="xtick_12">
     <g id="line2d_43">
      <path d="M 630.357494 469.99976 
L 630.357494 249.517818 
" clip-path="url(#p53ce30490a)" style="fill: none; stroke: #b0b0b0; stroke-opacity: 0.18; stroke-width: 0.8; stroke-linecap: square"/>
     </g>
     <g id="line2d_44">
      <g>
       <use xlink:href="#mf4d014b243" x="630.357494" y="469.99976" style="stroke: #000000; stroke-width: 0.8"/>
      </g>
     </g>
     <g id="text_18">
      <!-- 10 -->
      <g transform="translate(624.146556 485.779057) scale(0.1 -0.1)">
       <use xlink:href="#Meiryo-14"/>
       <use xlink:href="#Meiryo-13" transform="translate(62.109375 0)"/>
      </g>
     </g>
    </g>
    <g id="text_19">
     <!-- 反復 -->
     <g transform="translate(368.81543 499.779057) scale(0.1 -0.1)">
      <defs>
       <path id="Meiryo-a96" d="M 3588 731 
Q 2594 -6 1400 -366 
L 1200 -22 
Q 2353 375 3191 1006 
Q 2166 1797 1678 3197 
L 1363 3197 
L 1363 3106 
Q 1363 988 409 -281 
L 81 -47 
Q 353 325 612 1133 
Q 872 1941 872 2931 
L 872 4959 
L 5888 4959 
L 5888 4588 
L 1363 4588 
L 1363 3563 
L 5278 3563 
L 5434 3425 
Q 5225 2756 4829 2103 
Q 4434 1450 3947 1019 
Q 4841 416 6016 72 
L 5750 -341 
Q 4819 -59 3588 731 
z
M 3547 1297 
Q 3988 1700 4331 2217 
Q 4675 2734 4803 3197 
L 2147 3197 
Q 2559 2022 3547 1297 
z
" transform="scale(0.015625)"/>
       <path id="Meiryo-b6e" d="M 2772 1228 
Q 2316 938 2006 797 
L 1784 1084 
Q 2834 1647 3334 2188 
L 2672 2188 
L 2672 4016 
Q 2481 3781 2313 3613 
L 2006 3866 
Q 2159 4016 2498 4486 
Q 2838 4956 3009 5375 
L 3481 5284 
Q 3431 5169 3303 4919 
L 6144 4919 
L 6144 4559 
L 3078 4559 
Q 2934 4350 2750 4116 
L 5747 4116 
L 5747 2188 
L 3922 2188 
Q 3713 1931 3466 1725 
L 5772 1725 
L 5975 1581 
Q 5588 934 4706 403 
Q 5509 119 6334 16 
L 6138 -363 
Q 5200 -244 4266 153 
Q 3325 -288 2000 -409 
L 1894 -56 
Q 3175 81 3784 381 
Q 3194 700 2772 1228 
z
M 3134 3306 
L 5269 3306 
L 5269 3788 
L 3134 3788 
L 3134 3306 
z
M 5269 2991 
L 3134 2991 
L 3134 2509 
L 5269 2509 
L 5269 2991 
z
M 4241 591 
Q 4803 891 5288 1400 
L 3147 1400 
Q 3594 891 4241 591 
z
M 400 3638 
L 131 3925 
Q 994 4606 1431 5316 
L 1875 5166 
Q 1306 4263 400 3638 
z
M 953 -403 
L 953 2266 
Q 622 1866 334 1628 
L 59 1916 
Q 175 2031 337 2209 
Q 500 2388 661 2575 
Q 822 2763 1006 3034 
Q 1191 3306 1303 3495 
Q 1416 3684 1491 3847 
L 1934 3691 
Q 1688 3213 1253 2641 
L 1438 2641 
L 1438 -403 
L 953 -403 
z
" transform="scale(0.015625)"/>
      </defs>
      <use xlink:href="#Meiryo-a96"/>
      <use xlink:href="#Meiryo-b6e" transform="translate(100 0)"/>
     </g>
    </g>
   </g>
   <g id="matplotlib.axis_4">
    <g id="ytick_8">
     <g id="line2d_45">
      <path d="M 40.631099 459.977854 
L 716.99976 459.977854 
" clip-path="url(#p53ce30490a)" style="fill: none; stroke: #b0b0b0; stroke-opacity: 0.18; stroke-width: 0.8; stroke-linecap: square"/>
     </g>
     <g id="line2d_46">
      <g>
       <use xlink:href="#m5dfede9dbc" x="40.631099" y="459.977854" style="stroke: #000000; stroke-width: 0.8"/>
      </g>
     </g>
     <g id="text_20">
      <!-- -2 -->
      <g transform="translate(23.024849 464.367502) scale(0.1 -0.1)">
       <defs>
        <path id="Meiryo-10" d="M 2381 1797 
L 431 1797 
L 431 2322 
L 2381 2322 
L 2381 1797 
z
" transform="scale(0.015625)"/>
       </defs>
       <use xlink:href="#Meiryo-10"/>
       <use xlink:href="#Meiryo-15" transform="translate(43.953125 0)"/>
      </g>
     </g>
    </g>
    <g id="ytick_9">
     <g id="line2d_47">
      <path d="M 40.631099 411.162165 
L 716.99976 411.162165 
" clip-path="url(#p53ce30490a)" style="fill: none; stroke: #b0b0b0; stroke-opacity: 0.18; stroke-width: 0.8; stroke-linecap: square"/>
     </g>
     <g id="line2d_48">
      <g>
       <use xlink:href="#m5dfede9dbc" x="40.631099" y="411.162165" style="stroke: #000000; stroke-width: 0.8"/>
      </g>
     </g>
     <g id="text_21">
      <!-- -1 -->
      <g transform="translate(23.024849 415.551814) scale(0.1 -0.1)">
       <use xlink:href="#Meiryo-10"/>
       <use xlink:href="#Meiryo-14" transform="translate(43.953125 0)"/>
      </g>
     </g>
    </g>
    <g id="ytick_10">
     <g id="line2d_49">
      <path d="M 40.631099 362.346477 
L 716.99976 362.346477 
" clip-path="url(#p53ce30490a)" style="fill: none; stroke: #b0b0b0; stroke-opacity: 0.18; stroke-width: 0.8; stroke-linecap: square"/>
     </g>
     <g id="line2d_50">
      <g>
       <use xlink:href="#m5dfede9dbc" x="40.631099" y="362.346477" style="stroke: #000000; stroke-width: 0.8"/>
      </g>
     </g>
     <g id="text_22">
      <!-- 0 -->
      <g transform="translate(27.420162 366.736125) scale(0.1 -0.1)">
       <use xlink:href="#Meiryo-13"/>
      </g>
     </g>
    </g>
    <g id="ytick_11">
     <g id="line2d_51">
      <path d="M 40.631099 313.530789 
L 716.99976 313.530789 
" clip-path="url(#p53ce30490a)" style="fill: none; stroke: #b0b0b0; stroke-opacity: 0.18; stroke-width: 0.8; stroke-linecap: square"/>
     </g>
     <g id="line2d_52">
      <g>
       <use xlink:href="#m5dfede9dbc" x="40.631099" y="313.530789" style="stroke: #000000; stroke-width: 0.8"/>
      </g>
     </g>
     <g id="text_23">
      <!-- 1 -->
      <g transform="translate(27.420162 317.920437) scale(0.1 -0.1)">
       <use xlink:href="#Meiryo-14"/>
      </g>
     </g>
    </g>
    <g id="ytick_12">
     <g id="line2d_53">
      <path d="M 40.631099 264.715101 
L 716.99976 264.715101 
" clip-path="url(#p53ce30490a)" style="fill: none; stroke: #b0b0b0; stroke-opacity: 0.18; stroke-width: 0.8; stroke-linecap: square"/>
     </g>
     <g id="line2d_54">
      <g>
       <use xlink:href="#m5dfede9dbc" x="40.631099" y="264.715101" style="stroke: #000000; stroke-width: 0.8"/>
      </g>
     </g>
     <g id="text_24">
      <!-- 2 -->
      <g transform="translate(27.420162 269.104749) scale(0.1 -0.1)">
       <use xlink:href="#Meiryo-15"/>
      </g>
     </g>
    </g>
    <g id="text_25">
     <!-- 転位係数 x [-] -->
     <g transform="translate(17.085787 392.52832) rotate(-90) scale(0.1 -0.1)">
      <use xlink:href="#Meiryo-ae1"/>
      <use xlink:href="#Meiryo-a5b" transform="translate(100 0)"/>
      <use xlink:href="#Meiryo-aac" transform="translate(200 0)"/>
      <use xlink:href="#Meiryo-a2f" transform="translate(300 0)"/>
      <use xlink:href="#Meiryo-3" transform="translate(400 0)"/>
      <use xlink:href="#Meiryo-5b" transform="translate(433.984375 0)"/>
      <use xlink:href="#Meiryo-3" transform="translate(489.546875 0)"/>
      <use xlink:href="#Meiryo-3e" transform="translate(523.53125 0)"/>
      <use xlink:href="#Meiryo-10" transform="translate(567.484375 0)"/>
      <use xlink:href="#Meiryo-40" transform="translate(611.4375 0)"/>
     </g>
    </g>
   </g>
   <g id="line2d_55">
    <path d="M 71.375129 259.539725 
L 127.273366 305.720957 
L 183.171602 348.368546 
L 239.069839 386.828658 
L 294.968075 310.418574 
L 350.866311 351.349342 
L 406.764548 339.854543 
L 462.662784 340.990014 
L 518.561021 341.500892 
L 574.459257 341.522543 
L 630.357494 341.520634 
L 686.25573 341.520634 
" clip-path="url(#p53ce30490a)" style="fill: none; stroke: #1f77b4; stroke-width: 1.5; stroke-linecap: square"/>
   </g>
   <g id="line2d_56">
    <path d="M 71.375129 413.749853 
L 127.273366 377.314188 
L 183.171602 351.478426 
L 239.069839 306.522871 
L 294.968075 361.243954 
L 350.866311 336.759601 
L 406.764548 325.761125 
L 462.662784 324.20902 
L 518.561021 323.953581 
L 574.459257 323.942756 
L 630.357494 323.94371 
L 686.25573 323.94371 
" clip-path="url(#p53ce30490a)" style="fill: none; stroke: #ff7f0e; stroke-width: 1.5; stroke-linecap: square"/>
   </g>
   <g id="line2d_57">
    <path d="M 71.375129 362.346477 
L 127.273366 335.65638 
L 183.171602 326.632444 
L 239.069839 275.181446 
L 294.968075 308.213527 
L 350.866311 300.175591 
L 406.764548 266.683839 
L 462.662784 264.715101 
L 518.561021 264.715101 
L 574.459257 264.715101 
L 630.357494 264.715101 
L 686.25573 264.715101 
" clip-path="url(#p53ce30490a)" style="fill: none; stroke: #2ca02c; stroke-width: 1.5; stroke-linecap: square"/>
   </g>
   <g id="line2d_58">
    <path d="M 71.375129 387.339919 
L 127.273366 358.504693 
L 183.171602 320.203541 
L 239.069839 353.833783 
L 294.968075 383.008174 
L 350.866311 346.554821 
L 406.764548 335.41982 
L 462.662784 335.937886 
L 518.561021 336.626277 
L 574.459257 336.62383 
L 630.357494 336.624614 
L 686.25573 336.624614 
" clip-path="url(#p53ce30490a)" style="fill: none; stroke: #d62728; stroke-width: 1.5; stroke-linecap: square"/>
   </g>
   <g id="line2d_59">
    <path d="M 71.375129 362.346477 
L 127.273366 341.938982 
L 183.171602 318.01741 
L 239.069839 346.119074 
L 294.968075 356.602199 
L 350.866311 334.352123 
L 406.764548 303.751742 
L 462.662784 303.90655 
L 518.561021 304.817665 
L 574.459257 304.824657 
L 630.357494 304.824609 
L 686.25573 304.824609 
" clip-path="url(#p53ce30490a)" style="fill: none; stroke: #9467bd; stroke-width: 1.5; stroke-linecap: square"/>
   </g>
   <g id="line2d_60">
    <path d="M 40.631099 459.977854 
L 716.99976 459.977854 
" clip-path="url(#p53ce30490a)" style="fill: none; stroke-dasharray: 1.5,2.475; stroke-dashoffset: 0; stroke: #000000; stroke-width: 1.5"/>
   </g>
   <g id="line2d_61">
    <path d="M 40.631099 264.715101 
L 716.99976 264.715101 
" clip-path="url(#p53ce30490a)" style="fill: none; stroke-dasharray: 1.5,2.475; stroke-dashoffset: 0; stroke: #000000; stroke-width: 1.5"/>
   </g>
   <g id="patch_7">
    <path d="M 40.631099 469.99976 
L 40.631099 249.517818 
" style="fill: none; stroke: #000000; stroke-width: 0.8; stroke-linejoin: miter; stroke-linecap: square"/>
   </g>
   <g id="patch_8">
    <path d="M 40.631099 469.99976 
L 716.99976 469.99976 
" style="fill: none; stroke: #000000; stroke-width: 0.8; stroke-linejoin: miter; stroke-linecap: square"/>
   </g>
   <g id="legend_2">
    <g id="patch_9">
     <path d="M 407.96226 369.166406 
L 709.99976 369.166406 
Q 711.99976 369.166406 711.99976 367.166406 
L 711.99976 352.351172 
Q 711.99976 350.351172 709.99976 350.351172 
L 407.96226 350.351172 
Q 405.96226 350.351172 405.96226 352.351172 
L 405.96226 367.166406 
Q 405.96226 369.166406 407.96226 369.166406 
z
" style="fill: #ffffff; opacity: 0.8; stroke: #cccccc; stroke-linejoin: miter"/>
    </g>
    <g id="line2d_62">
     <path d="M 409.96226 359.630469 
L 419.96226 359.630469 
L 429.96226 359.630469 
" style="fill: none; stroke: #1f77b4; stroke-width: 1.5; stroke-linecap: square"/>
    </g>
    <g id="text_26">
     <!-- xs -->
     <g transform="translate(437.96226 363.130469) scale(0.1 -0.1)">
      <defs>
       <path id="Meiryo-56" d="M 1528 -84 
Q 866 -84 284 206 
L 284 844 
L 306 844 
Q 938 375 1559 375 
Q 2431 375 2431 925 
Q 2431 1141 2315 1259 
Q 2200 1378 1834 1463 
Q 1528 1522 1131 1615 
Q 734 1709 517 1945 
Q 300 2181 300 2550 
Q 300 3019 681 3317 
Q 1063 3616 1700 3616 
Q 2356 3616 2853 3359 
L 2853 2753 
L 2831 2753 
Q 2284 3156 1672 3156 
Q 1294 3156 1075 3017 
Q 856 2878 856 2631 
Q 856 2413 973 2297 
Q 1091 2181 1441 2094 
L 2131 1944 
Q 2559 1850 2775 1614 
Q 2991 1378 2991 1003 
Q 2991 519 2594 217 
Q 2197 -84 1528 -84 
z
" transform="scale(0.015625)"/>
      </defs>
      <use xlink:href="#Meiryo-5b"/>
      <use xlink:href="#Meiryo-56" transform="translate(55.5625 0)"/>
     </g>
    </g>
    <g id="line2d_63">
     <path d="M 468.49976 359.630469 
L 478.49976 359.630469 
L 488.49976 359.630469 
" style="fill: none; stroke: #ff7f0e; stroke-width: 1.5; stroke-linecap: square"/>
    </g>
    <g id="text_27">
     <!-- xp1 -->
     <g transform="translate(496.49976 363.130469) scale(0.1 -0.1)">
      <defs>
       <path id="Meiryo-53" d="M 1081 203 
L 1081 -1303 
L 531 -1303 
L 531 3531 
L 1081 3531 
L 1081 3141 
Q 1684 3631 2253 3631 
Q 2878 3631 3247 3145 
Q 3616 2659 3616 1809 
Q 3616 975 3169 453 
Q 2722 -69 2063 -69 
Q 1559 -69 1081 203 
z
M 1081 2694 
L 1081 631 
Q 1550 422 1950 422 
Q 2466 422 2756 780 
Q 3047 1138 3047 1791 
Q 3047 3113 2094 3113 
Q 1588 3113 1081 2694 
z
" transform="scale(0.015625)"/>
      </defs>
      <use xlink:href="#Meiryo-5b"/>
      <use xlink:href="#Meiryo-53" transform="translate(55.5625 0)"/>
      <use xlink:href="#Meiryo-14" transform="translate(116.40625 0)"/>
     </g>
    </g>
    <g id="line2d_64">
     <path d="M 534.351322 359.630469 
L 544.351322 359.630469 
L 554.351322 359.630469 
" style="fill: none; stroke: #2ca02c; stroke-width: 1.5; stroke-linecap: square"/>
    </g>
    <g id="text_28">
     <!-- xr1 -->
     <g transform="translate(562.351322 363.130469) scale(0.1 -0.1)">
      <use xlink:href="#Meiryo-5b"/>
      <use xlink:href="#Meiryo-55" transform="translate(55.5625 0)"/>
      <use xlink:href="#Meiryo-14" transform="translate(96.875 0)"/>
     </g>
    </g>
    <g id="line2d_65">
     <path d="M 598.24976 359.630469 
L 608.24976 359.630469 
L 618.24976 359.630469 
" style="fill: none; stroke: #d62728; stroke-width: 1.5; stroke-linecap: square"/>
    </g>
    <g id="text_29">
     <!-- xp2 -->
     <g transform="translate(626.24976 363.130469) scale(0.1 -0.1)">
      <use xlink:href="#Meiryo-5b"/>
      <use xlink:href="#Meiryo-53" transform="translate(55.5625 0)"/>
      <use xlink:href="#Meiryo-15" transform="translate(116.40625 0)"/>
     </g>
    </g>
    <g id="line2d_66">
     <path d="M 664.101322 359.630469 
L 674.101322 359.630469 
L 684.101322 359.630469 
" style="fill: none; stroke: #9467bd; stroke-width: 1.5; stroke-linecap: square"/>
    </g>
    <g id="text_30">
     <!-- xr2 -->
     <g transform="translate(692.101322 363.130469) scale(0.1 -0.1)">
      <use xlink:href="#Meiryo-5b"/>
      <use xlink:href="#Meiryo-55" transform="translate(55.5625 0)"/>
      <use xlink:href="#Meiryo-15" transform="translate(96.875 0)"/>
     </g>
    </g>
   </g>
  </g>
 </g>
 <defs>
  <clipPath id="p3b36f04687">
   <rect x="40.631099" y="19.535396" width="676.368661" height="220.481942"/>
  </clipPath>
  <clipPath id="p53ce30490a">
   <rect x="40.631099" y="249.517818" width="676.368661" height="220.481942"/>
  </clipPath>
 </defs>
</svg>
